<mxfile host="app.diagrams.net" modified="2024-05-16T00:34:51.984Z" agent="Mozilla/5.0 (Windows NT 10.0; Win64; x64) AppleWebKit/537.36 (KHTML, like Gecko) Chrome/124.0.0.0 Safari/537.36 Edg/124.0.0.0" version="24.3.1" etag="kPsEZn63s_tSNYxjzxTP" type="github">
  <diagram name="第 1 页" id="gEdZS8duLjTJs79BsFfT">
    <mxGraphModel>
      <root>
        <mxCell id="0" />
        <mxCell id="1" parent="0" />
      </root>
    </mxGraphModel>
  </diagram>
</mxfile>
